# xmcd
#
# Track frame offsets:
# 150
# 17612
# 31656
# 48299
# 77890
# 115594
# 138474
#
# Disc length: 2060 seconds
#
#
# Revision: 0
# Processed by: cddbd v1.5.1PL2 Copyright (c) Steve Scherf et al.
# Submitted via: FreeRIP 2.945 
#
DISCID=4a080a07
DTITLE=Gilda - Album de Oro
DYEAR=1999
DGENRE=Cumbia
TTITLE0=No me arrepiento de este amor
TTITLE1=Noches vacías
TTITLE2=La puerta
TTITLE3=MegaGilda Mix I
TTITLE4=MegaGilda Mix II
TTITLE5=Homenaje
TTITLE6=Homenaje
EXTD=
EXTT0=
EXTT1=
EXTT2=
EXTT3=
EXTT4=
EXTT5=
EXTT6=
PLAYORDER=
